<?xml version="1.0" standalone="no"?>
<!DOCTYPE svg PUBLIC "-//W3C//DTD SVG 1.1//EN" "http://www.w3.org/Graphics/SVG/1.1/DTD/svg11.dtd" >
<!--
2013-9-30: Created.
-->
<svg>
<metadata>
Created by iconfont
</metadata>
<defs>

<font id="iconfont" horiz-adv-x="1024" >
  <font-face
    font-family="iconfont"
    font-weight="500"
    font-stretch="normal"
    units-per-em="1024"
    ascent="896"
    descent="-128"
  />
    <missing-glyph />
    
    <glyph glyph-name="x" unicode="x" horiz-adv-x="1001"
d="M281 543q-27 -1 -53 -1h-83q-18 0 -36.5 -6t-32.5 -18.5t-23 -32t-9 -45.5v-76h912v41q0 16 -0.5 30t-0.5 18q0 13 -5 29t-17 29.5t-31.5 22.5t-49.5 9h-133v-97h-438v97zM955 310v-52q0 -23 0.5 -52t0.5 -58t-10.5 -47.5t-26 -30t-33 -16t-31.5 -4.5q-14 -1 -29.5 -0.5
t-29.5 0.5h-32l-45 128h-439l-44 -128h-29h-34q-20 0 -45 1q-25 0 -41 9.5t-25.5 23t-13.5 29.5t-4 30v167h911zM163 247q-12 0 -21 -8.5t-9 -21.5t9 -21.5t21 -8.5q13 0 22 8.5t9 21.5t-9 21.5t-22 8.5zM316 123q-8 -26 -14 -48q-5 -19 -10.5 -37t-7.5 -25t-3 -15t1 -14.5
t9.5 -10.5t21.5 -4h37h67h81h80h64h36q23 0 34 12t2 38q-5 13 -9.5 30.5t-9.5 34.5q-5 19 -11 39h-368zM336 498v228q0 11 2.5 23t10 21.5t20.5 15.5t34 6h188q31 0 51.5 -14.5t20.5 -52.5v-227h-327z" />
    

    
    <glyph glyph-name="jisuanqi" unicode="&#58967;" d="M200.641 582.191h77.936v-77.934c0-10.763 8.721-19.486 19.482-19.486s19.484 8.723 19.484 19.486v77.934h77.934c10.763 0 19.486 8.723 19.486 19.482 0 10.763-8.723 19.484-19.486 19.484h-77.934v77.936c0 10.761-8.723 19.484-19.484 19.484-10.761 0-19.482-8.723-19.482-19.484v-77.936h-77.936c-10.759 0-19.484-8.721-19.484-19.484 0-10.759 8.725-19.482 19.484-19.482z m623.474 38.965H629.281c-10.761 0-19.486-8.721-19.486-19.484 0-10.759 8.725-19.482 19.486-19.482h194.834c10.763 0 19.486 8.723 19.486 19.482-0.001 10.763-8.724 19.484-19.486 19.484zM269.67 174.253l-62.797-62.797c-7.608-7.608-7.608-19.945 0-27.554s19.945-7.608 27.554 0l62.797 62.797 60.587-60.587c7.61-7.608 19.945-7.608 27.556-0.002 7.608 7.61 7.606 19.947-0.002 27.556l-60.587 60.587 61.197 61.197c7.608 7.61 7.608 19.945 0 27.554s-19.945 7.608-27.554 0l-61.197-61.197-63.404 63.404c-7.61 7.608-19.947 7.608-27.556 0-7.606-7.606-7.606-19.945 0.002-27.554l63.404-63.404zM882.565 835.475H142.19c-43.041 0-77.932-34.891-77.932-77.934v-740.373c0-43.043 34.891-77.934 77.932-77.934h740.375c43.043 0 77.935 34.891 77.935 77.934V757.541c0 43.043-34.892 77.934-77.935 77.934zM492.896-21.802H142.19c-21.52 0-38.967 17.448-38.967 38.969V367.872h389.673v-389.674z m0 428.639H103.223V757.541c0 21.522 17.448 38.969 38.967 38.969h350.706v-389.673z m428.638-389.67c0-21.522-17.448-38.969-38.969-38.969H531.861V367.872h389.673v-350.705z m0 389.67H531.861V796.51h350.704c21.522 0 38.969-17.448 38.969-38.969v-350.704zM629.281 95.1h194.834c10.763 0 19.486 8.725 19.486 19.484 0 10.761-8.723 19.484-19.486 19.484H629.281c-10.761 0-19.486-8.723-19.486-19.484 0-10.76 8.725-19.484 19.486-19.484z m0 116.903h194.834c10.763 0 19.486 8.723 19.486 19.484 0 10.759-8.723 19.482-19.486 19.482H629.281c-10.761 0-19.486-8.723-19.486-19.482 0-10.761 8.725-19.484 19.486-19.484z"  horiz-adv-x="1024" />

    
    <glyph glyph-name="team" unicode="&#58886;" d="M384.2 721.1c70.1 0 127.1-56.3 127.1-125.5s-57-125.5-127.1-125.5-127.1 56.3-127.1 125.5 57.1 125.5 127.1 125.5m80.2-422.7c-2.8-26-2-52.2 2.5-78 9.1-52.3 32.6-100.3 68.3-139.7H232.4c-25.5 0-49.7 10.9-68.2 30.6-19.5 20.7-30.2 48.5-30.2 78.2 0 29.7 10.7 57.5 30.2 78.3 18.5 19.7 42.7 30.6 68.2 30.6h232m-80.2 482.7c-103.2 0-187.1-83.2-187.1-185.5S281 410.1 384.2 410.1c103.2 0 187.1 83.2 187.1 185.5 0.1 102.2-83.9 185.5-187.1 185.5z m156.7-422.7H232.4C145.1 358.4 74 282.6 74 189.5c0-93.1 71.1-168.8 158.4-168.8h308.5c38 0 73 14.4 100.4 38.3l-54 54c-66.7 66.7-81.8 165.3-44.8 245.4-0.5-0.1-1.1 0-1.6 0zM768.7-2.2L629.5 137c-76.8 76.8-77.5 201-1.5 276.9 32.7 32.7 62.5 46.6 91.2 42.6 18.8-2.6 32.5-12.4 42.5-23.1 12.1 11 28.6 21.3 50.3 23 30 2.4 61.3-12.4 92.9-44 76.8-76.8 77.5-201 1.5-276.9L768.7-2.2z m-59 399.4c-6.6 0-20.3-6.6-39.3-25.6-52.5-52.5-51.9-138.7 1.5-192.1l96.8-96.8L864 178c52.5 52.5 51.9 138.7-1.5 192.1-18.1 18.1-34.3 27.5-45.6 26.6-11.8-1-21.6-14.6-27.5-22.8-5.5-7.6-13.7-19.1-30.2-19.1h-0.1c-18.7 0-26.9 14.8-31.3 22.7-3.4 6.1-10.4 18.8-16.9 19.7-0.4-0.1-0.8 0-1.2 0z"  horiz-adv-x="1024" />

    
    <glyph glyph-name="price" unicode="&#58887;" d="M538.3 380.7v31.8h66.3c18.1 0 32.8 14.7 32.8 32.8 0 18.1-14.7 32.8-32.8 32.8h-44.8l42.4 42.4c12.8 12.8 12.8 33.6 0 46.4-12.8 12.8-33.6 12.8-46.4 0l-46.4-46.4-46.4 46.4c-12.8 12.8-33.6 12.8-46.4 0-12.8-12.8-12.8-33.6 0-46.4l42.4-42.4h-52c-18.1 0-32.8-14.7-32.8-32.8 0-18.1 14.7-32.8 32.8-32.8h65.6v-31.8H407c-18.1 0-32.8-14.7-32.8-32.8v-1c0-18.1 14.7-32.8 32.8-32.8h65.6v-98.4c0-18.1 14.7-32.8 32.8-32.8 18.1 0 32.8 14.7 32.8 32.8v98.4h66.3c18.1 0 32.8 14.7 32.8 32.8v1c0 18.1-14.7 32.8-32.8 32.8h-66.2zM510.5-26.6L239 208.1c-37.2 32.2-66.1 69.8-85.8 111.8-19.2 40.9-28.9 84.2-28.9 128.6s9.7 87.7 28.9 128.6c19.7 42 48.6 79.6 85.8 111.8 31.7 27.4 62.5 47.2 91.4 58.9 27.1 10.9 53.4 15 78.1 12.2 49.2-5.6 81-36.7 100.2-60.6 19.7 24 52.4 55.6 102.7 61 51.7 5.6 109-18.4 170.5-71.5 37.2-32.2 66.1-69.8 85.8-111.8 19.2-40.9 28.9-84.2 28.9-128.6s-9.7-87.7-28.9-128.6c-19.7-42-48.6-79.6-85.8-111.8L510.5-26.6zM393 700.8c-32.1 0-70.6-19.2-114.7-57.3-60.6-52.4-93.9-121.6-93.9-195s33.4-142.6 93.9-195l232.2-200.7 232.2 200.7c60.6 52.4 93.9 121.6 93.9 195s-33.4 142.6-93.9 195c-48.3 41.8-90.3 61-124.7 57.3-36.8-4-59.8-34.9-73.5-53.3-9.5-12.8-18.5-24.8-35.8-24.9h-0.1c-15.4 0-24.4 10.5-27.4 14-2.7 3.2-5.4 6.9-8.6 11.2-35.3 48.5-57.6 51-70.9 52.5-2.9 0.4-5.8 0.5-8.7 0.5z"  horiz-adv-x="1024" />

    
    <glyph glyph-name="housing" unicode="&#58888;" d="M623.3-11.3H150.1c-48.3 0-87.6 39.3-87.6 87.6s39.3 87.6 87.6 87.6h27.6V671.8c0 58.9 47.9 106.8 106.8 106.8h345.8c58.9 0 106.8-47.9 106.8-106.8v-225.2c0-15.8-12.2-28.9-27.9-29.9l-0.8-0.1c-3.3-0.2-6.4-0.4-9.4-0.5-15.2-0.7-26.2-1.2-41.3-9.4-20.2-10.9-43.8-33.6-72.3-69.4-29.2-36.7-45.1-80.9-44.9-124.5 0.3-45.4 17.8-86.7 50.6-119.5l53.4-53.4c8.6-8.6 11.1-21.5 6.5-32.7-4.6-11.2-15.5-18.5-27.7-18.5zM150.1 104c-15.2 0-27.6-12.4-27.6-27.6s12.4-27.6 27.6-27.6h400.8l-2.2 2.2c-22.4 22.4-39.6 48.1-51.2 76.3-11.1 26.9-16.8 55.6-17 85.2-0.4 57.2 20.2 114.8 57.9 162.2 34 42.8 62.8 69.7 90.7 84.8 18.2 9.9 34.2 13.6 48.1 15.2V671.8c0 25.8-21 46.8-46.8 46.8H284.5c-25.8 0-46.8-21-46.8-46.8V134c0-16.6-13.4-30-30-30h-57.6z m557 342.6zM334.7 633.4h76.8c10.6 0 19.2-8.6 19.2-19.2v-76.8c0-10.6-8.6-19.2-19.2-19.2h-76.8c-10.6 0-19.2 8.6-19.2 19.2v76.8c0 10.6 8.6 19.2 19.2 19.2zM334.7 401.3h76.8c10.6 0 19.2-8.6 19.2-19.2v-76.8c0-10.6-8.6-19.2-19.2-19.2h-76.8c-10.6 0-19.2 8.6-19.2 19.2v76.8c0 10.6 8.6 19.2 19.2 19.2zM506.8 633.4h76.8c10.6 0 19.2-8.6 19.2-19.2v-76.8c0-10.6-8.6-19.2-19.2-19.2h-76.8c-10.6 0-19.2 8.6-19.2 19.2v76.8c0 10.6 8.6 19.2 19.2 19.2zM790.1-25.1L669.8 95.2c-66.3 66.3-68.8 171.9-5.4 235.2 27.2 27.2 52.7 38.8 77.9 35.5 15.5-2.1 27.3-9.5 36.1-18 9.8 7.8 22.6 14.5 38.9 15.9 26.6 2.3 54.3-10.8 82.3-38.9 66.3-66.3 68.8-171.9 5.4-235.2L790.1-25.1z m-56 331.5c-1 0-9.6-0.6-27.4-18.4-40-40-37.5-107.4 5.4-150.4l77.9-77.9 72.5 72.5c40 40 37.5 107.4-5.4 150.4-20.9 20.9-31.9 21.7-34.8 21.5-6.5-0.6-13.1-9.9-17.1-15.4-4.5-6.3-12.8-18-29-18h-0.8c-17.9 0.4-25.9 14.4-29.7 21.2-7 12.3-10.2 14.4-11.4 14.6-0.1-0.1-0.1-0.1-0.2-0.1z"  horiz-adv-x="1024" />

    
    <glyph glyph-name="project" unicode="&#58889;" d="M709.2 744.8c3.7 0 10.7-0.9 16.7-6.8l112.5-111.5c5.8-5.7 6.6-12.3 6.6-15.8s-0.9-10-6.6-15.8L725.8 483.5c-6-5.9-13-6.8-16.7-6.8-3.7 0-10.7 0.9-16.7 6.8L580 595c-5.8 5.7-6.6 12.3-6.6 15.8s0.9 10 6.6 15.8L692.5 738c6 6 13 6.8 16.7 6.8m0 60c-21.3 0-42.6-8.1-58.9-24.2L537.8 669.1c-32.5-32.2-32.5-84.5 0-116.7l112.5-111.5c16.3-16.1 37.6-24.2 58.9-24.2s42.6 8.1 58.9 24.2l112.5 111.5c32.5 32.2 32.5 84.5 0 116.7L768.1 780.7c-16.3 16.1-37.6 24.1-58.9 24.1zM391.3 10.5H222.8c-41.8 0-75.7 34-75.7 75.7V254.8c0 41.8 34 75.7 75.7 75.7h168.5c41.8 0 75.7-34 75.7-75.7v-168.5c0-41.8-33.9-75.8-75.7-75.8z m-168.5 316c-39.6 0-71.7-32.2-71.7-71.7v-168.5c0-39.6 32.2-71.7 71.7-71.7h168.5c39.6 0 71.7 32.2 71.7 71.7V254.8c0 39.6-32.2 71.7-71.7 71.7H222.8zM385.5 292c12 0 21.9-9.5 21.9-21.1v-185.4c0-11.6-9.8-21.1-21.9-21.1H198.4c-12 0-21.9 9.5-21.9 21.1V270.9c0 11.6 9.8 21.1 21.9 21.1h187.1m0 60H198.4c-45.2 0-81.9-36.3-81.9-81.1v-185.4c0-44.8 36.6-81.1 81.9-81.1h187.1c45.2 0 81.9 36.3 81.9 81.1V270.9c0 44.8-36.7 81.1-81.9 81.1zM385.5 720.2c12 0 21.9-9.5 21.9-21.1v-185.4c0-11.6-9.8-21.1-21.9-21.1H198.4c-12 0-21.9 9.5-21.9 21.1V699.1c0 11.6 9.8 21.1 21.9 21.1h187.1m0 60H198.4c-45.2 0-81.9-36.3-81.9-81.1v-185.4c0-44.8 36.6-81.1 81.9-81.1h187.1c45.2 0 81.9 36.3 81.9 81.1V699.1c0 44.8-36.7 81.1-81.9 81.1zM812.6 10.5H644.1c-41.8 0-75.7 34-75.7 75.7V254.8c0 41.8 34 75.7 75.7 75.7h168.5c41.8 0 75.7-34 75.7-75.7v-168.5c0.1-41.8-33.9-75.8-75.7-75.8z m-168.5 316c-39.6 0-71.7-32.2-71.7-71.7v-168.5c0-39.6 32.2-71.7 71.7-71.7h168.5c39.6 0 71.7 32.2 71.7 71.7V254.8c0 39.6-32.2 71.7-71.7 71.7H644.1zM805.9 292c12 0 21.9-9.5 21.9-21.1v-185.4c0-11.6-9.8-21.1-21.9-21.1H618.8c-12 0-21.9 9.5-21.9 21.1V270.9c0 11.6 9.8 21.1 21.9 21.1h187.1m0 60H618.8c-45.2 0-81.9-36.3-81.9-81.1v-185.4c0-44.8 36.6-81.1 81.9-81.1h187.1c45.2 0 81.9 36.3 81.9 81.1V270.9c0 44.8-36.7 81.1-81.9 81.1z"  horiz-adv-x="1024" />

    
    <glyph glyph-name="caidanguanli" unicode="&#58892;" d="M181 429c-22.6 0-41-18.4-41-41s18.4-41 41-41 41 18.4 41 41-18.4 41-41 41zM182 150c-22.6 0-41-18.4-41-41s18.4-41 41-41 41 18.4 41 41-18.4 41-41 41zM850.5 417.1h-515c-17.9 0-32.5-14.6-32.5-32.5s14.6-32.5 32.5-32.5h515c17.9 0 32.5 14.6 32.5 32.5s-14.6 32.5-32.5 32.5zM181 701.8c-22.6 0-41-18.4-41-41s18.4-41 41-41 41 18.4 41 41-18.4 41-41 41zM850.5 693.2h-515c-17.9 0-32.5-14.6-32.5-32.5s14.6-32.5 32.5-32.5h515c17.9 0 32.5 14.6 32.5 32.5s-14.6 32.5-32.5 32.5zM850.5 141h-515c-17.9 0-32.5-14.6-32.5-32.5s14.6-32.5 32.5-32.5h515c17.9 0 32.5 14.6 32.5 32.5S868.4 141 850.5 141z"  horiz-adv-x="1024" />

    
    <glyph glyph-name="dianzikaipan" unicode="&#58893;" d="M801.3 642.5c10.1 0 18.7-8.5 18.7-18.7v-328.7c0-10.1-8.5-18.7-18.7-18.7H222.7c-10.1 0-18.7 8.5-18.7 18.7V623.8c0 10.1 8.5 18.7 18.7 18.7h578.6m0 65H222.7c-46 0-83.7-37.6-83.7-83.7v-328.7c0-46 37.6-83.7 83.7-83.7h578.7c46 0 83.7 37.6 83.7 83.7V623.8c-0.1 46.1-37.7 83.7-83.8 83.7zM689.5 121h-355c-17.9 0-32.5-14.6-32.5-32.5s14.6-32.5 32.5-32.5h355c17.9 0 32.5 14.6 32.5 32.5S707.4 121 689.5 121zM512.5 259c-17.9 0-32.5-14.6-32.5-32.5v-125c0-17.9 14.6-32.5 32.5-32.5s32.5 14.6 32.5 32.5v125c0 17.9-14.6 32.5-32.5 32.5zM339 494.5c-19.3 0-35-15.7-35-35s15.7-35 35-35 35 15.7 35 35-15.7 35-35 35zM512 494.5c-19.3 0-35-15.7-35-35s15.7-35 35-35 35 15.7 35 35-15.7 35-35 35zM685 494.5c-19.3 0-35-15.7-35-35s15.7-35 35-35 35 15.7 35 35-15.7 35-35 35z"  horiz-adv-x="1024" />

    
    <glyph glyph-name="jiaoseguanli" unicode="&#58894;" d="M512.1 711.5c60.3 0 109.3-48.4 109.3-107.9 0-59.5-49-107.9-109.3-107.9s-109.3 48.4-109.3 107.9c0 59.5 49.1 107.9 109.3 107.9m0 51.6c-88.7 0-160.9-71.5-160.9-159.5s72.2-159.5 160.9-159.5S673 515.6 673 603.6c0 87.9-72.2 159.5-160.9 159.5zM782.3-6.5H220.7c-32.8 0-59.5 26.6-59.5 59.4v0.3c0 47.4 5.3 90.5 15.6 128.1 11.8 42.9 30.6 79.9 55.9 110.1 56.8 67.8 146.3 102.1 266.2 102.1 120.1 0 210.2-33.6 267.8-99.8 26-29.8 45.4-66.5 57.9-109.1 11-37.5 16.8-80.7 17.2-128.3v-3.2c0.1-32.9-26.6-59.6-59.5-59.6z m-556.1 65h550.7c-0.6 40.5-5.5 76.8-14.6 107.9-9.8 33.5-24.8 61.9-44.5 84.6-21.2 24.3-48.9 43.2-82.3 55.9-37.5 14.3-83.4 21.6-136.5 21.6-52.8 0-98.4-7.4-135.6-22.1-33-13-60.2-32.1-80.9-56.8-36.6-43.7-55.6-108-56.3-191.1z"  horiz-adv-x="1024" />

    
    <glyph glyph-name="kehuguanli" unicode="&#58895;" d="M503.2 733.1c70.1 0 127.1-56.3 127.1-125.5s-57-125.5-127.1-125.5-127.1 56.3-127.1 125.5 57.1 125.5 127.1 125.5m0 60c-103.2 0-187.1-83.2-187.1-185.5S400 422.1 503.2 422.1c103.2 0 187.1 83.2 187.1 185.5 0.1 102.2-83.9 185.5-187.1 185.5zM695 304c30.8 0 59.9-12.1 81.9-34.1S811 218.8 811 188s-12.1-59.9-34.1-81.9S725.8 72 695 72H311c-30.8 0-59.9 12.1-81.9 34.1-22 22-34.1 51.1-34.1 81.9s12.1 59.9 34.1 81.9c22 22 51.1 34.1 81.9 34.1h384m0 65H311c-99.5 0-181-81.4-181-181s81.5-181 181-181h384c99.6 0 181 81.4 181 181s-81.4 181-181 181zM679 246.4c-19.5 19.5-51.2 19.5-70.7 0s-19.5-51.2 0-70.7L679 105l70.7 70.7c19.5 19.5 19.5 51.2 0 70.7s-51.2 19.5-70.7 0z"  horiz-adv-x="1024" />

    
    <glyph glyph-name="fangyuanchaxun" unicode="&#58896;" d="M344.8 637.4H396c7.1 0 12.8-5.7 12.8-12.8v-51.2c0-7.1-5.7-12.8-12.8-12.8h-51.2c-7.1 0-12.8 5.7-12.8 12.8v51.2c0 7.1 5.7 12.8 12.8 12.8zM467.8 637.4H519c7.1 0 12.8-5.7 12.8-12.8v-51.2c0-7.1-5.7-12.8-12.8-12.8h-51.2c-7.1 0-12.8 5.7-12.8 12.8v51.2c0 7.1 5.7 12.8 12.8 12.8zM344.8 506.4H396c7.1 0 12.8-5.7 12.8-12.8v-51.2c0-7.1-5.7-12.8-12.8-12.8h-51.2c-7.1 0-12.8 5.7-12.8 12.8v51.2c0 7.1 5.7 12.8 12.8 12.8zM467.8 506.4H519c7.1 0 12.8-5.7 12.8-12.8v-51.2c0-7.1-5.7-12.8-12.8-12.8h-51.2c-7.1 0-12.8 5.7-12.8 12.8v51.2c0 7.1 5.7 12.8 12.8 12.8zM344.8 375.4H396c7.1 0 12.8-5.7 12.8-12.8v-51.2c0-7.1-5.7-12.8-12.8-12.8h-51.2c-7.1 0-12.8 5.7-12.8 12.8v51.2c0 7.1 5.7 12.8 12.8 12.8zM467.8 375.4H519c7.1 0 12.8-5.7 12.8-12.8v-51.2c0-7.1-5.7-12.8-12.8-12.8h-51.2c-7.1 0-12.8 5.7-12.8 12.8v51.2c0 7.1 5.7 12.8 12.8 12.8zM582 714c3.2 0 6-2.9 6-6v-611c0-3.2-2.9-6-6-6H280.5l-0.5 5.5V708c0 3.2 2.9 6 6 6h296m0 65H286c-39.1 0-71-32-71-71v-611c0-2 0.1-4 0.3-6h-71.8c-17.9 0-32.5-14.6-32.5-32.5s14.6-32.5 32.5-32.5H582c39.1 0 71 32 71 71V708c0 39-32 71-71 71zM748 537c3.2 0 6-2.9 6-6v-434.5l-0.5-5.5h-100l-0.5 5.5V537h95m0 65h-89c-39.1 0-71-2-71-41v-464c0-2 0.1-4 0.3-6h-58.8c-17.9 0-32.5-14.6-32.5-32.5s14.6-32.5 32.5-32.5h328c17.9 0 32.5 14.6 32.5 32.5S875.4 91 857.5 91h-38.8c0.2 2 0.3 4 0.3 6V531c0 39-32 71-71 71z"  horiz-adv-x="1024" />

    
    <glyph glyph-name="jituanbiaoqian" unicode="&#58897;" d="M847.3 594c10.1 0 18.7-8.5 18.7-18.7v-409.7c0-10.1-8.5-18.7-18.7-18.7H174.7c-10.1 0-18.7 8.5-18.7 18.7V575.3c0 10.1 8.5 18.7 18.7 18.7h672.6m0 65H174.7c-46 0-83.7-37.6-83.7-83.7v-409.7c0-46 37.6-83.7 83.7-83.7h672.7c46 0 83.7 37.6 83.7 83.7V575.3c-0.1 46.1-37.7 83.7-83.8 83.7zM459.8 535.7H244.4c-11 0-20-9-20-20v-97c0-11 9-20 20-20h215.4c11 0 20 9 20 20v97c0 11-9 20-20 20z m-41.2-78.1c0-6.8-5.6-12.4-12.4-12.4H298c-6.8 0-12.4 5.6-12.4 12.4v19.3c0 6.8 5.6 12.4 12.4 12.4h108.1c6.8 0 12.4-5.6 12.4-12.4v-19.3zM778.8 535.7H563.4c-11 0-20-9-20-20v-97c0-11 9-20 20-20h215.4c11 0 20 9 20 20v97c0 11-9 20-20 20z m-41.2-78.1c0-6.8-5.6-12.4-12.4-12.4H617c-6.8 0-12.4 5.6-12.4 12.4v19.3c0 6.8 5.6 12.4 12.4 12.4h108.1c6.8 0 12.4-5.6 12.4-12.4v-19.3zM459.8 340.7H244.4c-11 0-20-9-20-20v-97c0-11 9-20 20-20h215.4c11 0 20 9 20 20v97c0 11-9 20-20 20z m-41.2-78.1c0-6.8-5.6-12.4-12.4-12.4H298c-6.8 0-12.4 5.6-12.4 12.4v19.3c0 6.8 5.6 12.4 12.4 12.4h108.1c6.8 0 12.4-5.6 12.4-12.4v-19.3zM778.8 340.7H563.4c-11 0-20-9-20-20v-97c0-11 9-20 20-20h215.4c11 0 20 9 20 20v97c0 11-9 20-20 20z m-41.2-78.1c0-6.8-5.6-12.4-12.4-12.4H617c-6.8 0-12.4 5.6-12.4 12.4v19.3c0 6.8 5.6 12.4 12.4 12.4h108.1c6.8 0 12.4-5.6 12.4-12.4v-19.3z"  horiz-adv-x="1024" />

    
    <glyph glyph-name="mianjibucha" unicode="&#58898;" d="M768.3 660c10.1 0 18.7-8.5 18.7-18.7v-512.7c0-10.1-8.5-18.7-18.7-18.7H255.7c-10.1 0-18.7 8.5-18.7 18.7V641.3c0 10.1 8.5 18.7 18.7 18.7h512.6m0 65H255.7c-46 0-83.7-37.6-83.7-83.7v-512.7c0-46 37.6-83.7 83.7-83.7h512.7c46 0 83.7 37.6 83.7 83.7V641.3c-0.1 46.1-37.7 83.7-83.8 83.7zM172 302.7v-14.9L592.6 45h25.8zM172 444.2v-14.9l642-370.6c3.9 2.6 7.6 5.4 11 8.6L172 444.2zM172 514.9V500l677.6-391.2c1.1 4.4 1.8 9 2.2 13.6L172 514.9zM172 373.5v-14.9L715.1 45h25.8zM172 161.3v-14.9L347.7 45h25.8zM172 232v-14.9L470.1 45h25.8zM250.7 45.2L186 82.5c14.1-21.2 37.8-35.7 64.7-37.3zM298 725h-25.8L852 390.2v14.9zM542.9 725h-25.8L852 531.7v14.9zM665.4 725h-25.8L852 602.4v14.9zM420.4 725h-25.7L852 461v14.8zM172 585.6v-14.9l680-392.6V193zM173.2 655.6c-0.8-4.6-1.2-9.3-1.2-14.2l680-392.6v14.9L173.2 655.6zM205.1 707.9c-3.6-2.7-7-5.8-10.1-9.1l657-379.3v14.9L205.1 707.9zM203 691m-65 0a65 65 0 1 1 130 0 65 65 0 1 1-130 0ZM816 691m-65 0a65 65 0 1 1 130 0 65 65 0 1 1-130 0ZM203 83m-65 0a65 65 0 1 1 130 0 65 65 0 1 1-130 0ZM816 83m-65 0a65 65 0 1 1 130 0 65 65 0 1 1-130 0Z"  horiz-adv-x="1024" />

    
    <glyph glyph-name="renwuguanli" unicode="&#58899;" d="M801.3 600.4c10.1 0 18.7-8.5 18.7-18.7v-473.2c0-10.1-8.5-18.7-18.7-18.7H222.7c-10.1 0-18.7 8.5-18.7 18.7V581.8c0 10.1 8.5 18.7 18.7 18.7h578.6m0 64.9H222.7c-46 0-83.7-37.6-83.7-83.7v-473.2c0-46 37.6-83.7 83.7-83.7h578.7c46 0 83.7 37.6 83.7 83.7V581.8c-0.1 46-37.7 83.6-83.8 83.6zM642.5 601h-261c-43.7 0-79.5 35.8-79.5 79.5s35.8 79.5 79.5 79.5h261c43.7 0 79.5-35.8 79.5-79.5S686.2 601 642.5 601zM746.7 530.2c-8.3 0-16.7-3.2-23-9.5l-297-297c-12.6-12.6-12.6-33.3 0-46 6.3-6.3 14.7-9.5 23-9.5s16.7 3.2 23 9.5l297 297c12.6 12.6 12.6 33.3 0 46-6.3 6.4-14.7 9.5-23 9.5zM295.6 387.4c-8.3 0-16.7-3.2-23-9.5-12.6-12.6-12.6-33.3 0-46L427.5 177c6.3-6.3 14.7-9.5 23-9.5s16.7 3.2 23 9.5c12.6 12.6 12.6 33.3 0 46L318.6 377.9c-6.4 6.3-14.7 9.5-23 9.5z"  horiz-adv-x="1024" />

    
    <glyph glyph-name="taodashezhi" unicode="&#58900;" d="M653.7 290.1c17.4-9.6 36.2-14.6 55.7-14.6 19.9 0 38.8 4.6 55.4 13.1 0.1-3.3 0.4-6.6 0.8-10 2.1-16.2 7.6-32.1 16-46.2 8.6-14.5 19.2-26.7 31.6-36.1 3.9-2.9 7.9-5.6 12.1-8-17.8-10.6-32.7-25.3-42.6-42.7l-0.1-0.2-0.1-0.2c-9.8-17.4-15.1-36.3-15.8-55.8-17.1 9.3-35.7 14.1-54.8 14.1-20.3 0-39.9-5-57.1-14.3-0.1 3.7-0.4 7.4-0.9 11.1-2.1 16.1-7.6 32.1-16 46.2-8.6 14.6-19.2 26.7-31.6 36.1-3.5 2.7-7.2 5.1-10.9 7.3 17.7 10.6 32.4 25.2 42.3 42.5l0.1 0.2 0.1 0.2c10 18 15.3 37.3 15.8 57.3m3.1 74.8c-2.4 0-4.7-0.5-6.7-1.2-22.4-9.5-41.3-20.6-57.6-34.4-6-4.3-8.6-12-6-18.9 4.3-16.3 2.6-31.8-5.2-45.6-6.9-12-19.8-21.5-35.3-25.8-0.9 0-0.9 0-1.7-0.9-5.2-2.6-8.6-6.9-11.2-12.9v-0.9c-2.6-12.9-3.4-24.1-3.4-35.3 0-11.2 0.9-24.1 3.4-34.4 0.9-6.9 5.2-12.9 12.9-14.6h0.9c15.5-3.4 26.7-12 35.3-26.7 7.7-12.9 10.3-29.2 5.2-43.9-2.6-6-0.9-13.8 5.2-18.9 16.3-15.5 36.1-27.5 59.3-35.3 0.9 0 1.7-0.9 3.4-0.9h2.6c4.3 0 9.5 1.7 13.8 6 9.5 11.2 24.1 18.1 40.4 18.1 14.6 0 28.4-6.9 40.4-18.9 3.4-3.4 7.7-6 12-6 1.7 0 4.3 0 6 0.9 22.4 9.5 41.3 20.6 57.6 34.4 6 3.4 8.6 12 6 18.9-4.3 16.3-2.6 31.8 5.2 45.6 6.9 12 19.8 21.5 35.3 25.8 0.9 0 0.9 0 1.7 0.9 5.2 2.6 8.6 6.9 11.2 12.9v0.9c2.6 12.9 3.4 24.1 3.4 35.3-0.9 12-1.7 24.1-4.3 35.3-0.9 6.9-5.2 12.9-12.9 14.6h-0.9c-15.5 3.4-26.7 12-35.3 26.7-7.7 12.9-10.3 29.2-5.2 43.9 2.6 6 0.9 13.8-5.2 18.9-16.3 15.5-36.1 27.5-58.5 35.3-1.8 0.8-3.7 1.2-5.6 1.2-4.5 0-9.1-2.1-13.3-6.3-9.5-12-24.1-18.1-40.4-18.1-14.6 0-28.4 6.9-40.4 18.9-4.1 4.1-8.3 5.4-12.1 5.4zM619.9 676c4.4 0 8.2-3.8 8.2-8.2v-202.1c-50.5-14.2-96.3-42.4-132-81.9-46.8-51.7-72.6-118.6-72.6-188.4 0-33.8 6-66.9 17.7-98.3 1.4-3.7 2.9-7.4 4.4-11.1H195.2c-4.4 0-8.2 3.8-8.2 8.2V667.8c0 4.4 3.8 8.2 8.2 8.2h424.7m0 65H195.2c-40.2 0-73.2-32.9-73.2-73.2v-573.7c0-40.2 32.9-73.2 73.2-73.2h328.2c18.1 0 27.9 21.2 16.2 34.9-31.9 37.6-51.1 86.3-51.1 139.4 0 111.4 84.5 203.1 192.9 214.6 6.7 0.7 11.8 6.4 11.8 13.1V667.8c-0.1 40.3-33.1 73.2-73.3 73.2zM707.8 189.20000000000005m-37.8 0a37.8 37.8 0 1 1 75.6 0 37.8 37.8 0 1 1-75.6 0ZM549 623H266c-17.6 0-32-14.4-32-32s14.4-32 32-32h283c17.6 0 32 14.4 32 32s-14.4 32-32 32zM405 417H266c-17.6 0-32-14.4-32-32s14.4-32 32-32h139c17.6 0 32 14.4 32 32s-14.4 32-32 32z"  horiz-adv-x="1024" />

    
    <glyph glyph-name="rengouguanli" unicode="&#58901;" d="M776.8 673c3.2 0 6.2-2.9 6.2-6.2v-574.6c0-3.2-2.9-6.2-6.2-6.2H249.2c-3.2 0-6.2 2.9-6.2 6.2V666.8c0 3.2 2.9 6.2 6.2 6.2h527.6m0 65H249.2c-39.1 0-71.2-32-71.2-71.2v-574.6c0-39.1 32-71.2 71.2-71.2h527.6c39.1 0 71.2 32 71.2 71.2V666.8c0 39.2-32 71.2-71.2 71.2zM545.3 350.70000000000005v61.8h106.3c18.1 0 32.8 14.7 32.8 32.8 0 18.1-14.7 32.8-32.8 32.8h-84.8l62.4 62.4c12.8 12.8 12.8 33.6 0 46.4-12.8 12.8-33.6 12.8-46.4 0l-66.4-66.4-66.4 66.4c-12.8 12.8-33.6 12.8-46.4 0-12.8-12.8-12.8-33.6 0-46.4l62.4-62.4h-92c-18.1 0-32.8-14.7-32.8-32.8 0-18.1 14.7-32.8 32.8-32.8h105.6v-61.8H374.1c-18.1 0-32.8-14.7-32.8-32.8v-1c0-18.1 14.7-32.8 32.8-32.8h105.6v-98.4c0-18.1 14.7-32.8 32.8-32.8 18.1 0 32.8 14.7 32.8 32.8v98.4h106.3c18.1 0 32.8 14.7 32.8 32.8v1c0 18.1-14.7 32.8-32.8 32.8H545.3z"  horiz-adv-x="1024" />

    
    <glyph glyph-name="qianyueguanli" unicode="&#58902;" d="M535 620H282c-17.6 0-32-14.4-32-32s14.4-32 32-32h253c17.6 0 32 14.4 32 32s-14.4 32-32 32zM376 414h-94c-17.6 0-32-14.4-32-32s14.4-32 32-32h94c17.6 0 32 14.4 32 32s-14.4 32-32 32zM779.6 319.4c-8.2 0-16.4-3.1-22.6-9.3L647.4 200.5c-12.4-12.4-12.4-32.8 0-45.3 6.2-6.2 14.4-9.3 22.6-9.3s16.4 3.1 22.6 9.3l109.6 109.6c12.4 12.4 12.4 32.8 0 45.3-6.2 6.2-14.4 9.3-22.6 9.3zM623.4 256.5c-8.2 0-16.4-3.1-22.6-9.3-12.4-12.4-12.4-32.8 0-45.3l46.7-46.7c6.2-6.2 14.4-9.3 22.6-9.3 8.2 0 16.4 3.1 22.6 9.3 12.4 12.4 12.4 32.8 0 45.3L646 247.20000000000005c-6.2 6.2-14.4 9.3-22.6 9.3zM705.5 376c37.3 0 72.3-14.5 98.6-40.9 26.3-26.3 40.9-61.4 40.9-98.6s-14.5-72.3-40.9-98.6c-26.3-26.3-61.4-40.9-98.6-40.9s-72.3 14.5-98.6 40.9c-26.3 26.3-40.9 61.4-40.9 98.6s14.5 72.3 40.9 98.6c26.3 26.4 61.3 40.9 98.6 40.9m0 65C592.6 441 501 349.4 501 236.5S592.6 32 705.5 32 910 123.60000000000002 910 236.5 818.4 441 705.5 441zM628.4 673c4 0 7.6-3.5 7.6-7.6v-124.7c-61.2-14.3-116.9-46.9-159.8-94.1C423.8 389 395 314.4 395 236.5c0-25.1 3-50.2 8.9-74.4 5.8-23.6 14.3-46.5 25.4-68.1 1.4-2.7 2.8-5.3 4.2-7.9h-225c-4 0-7.6 3.5-7.6 7.6V665.4c0 4 3.5 7.6 7.6 7.6h419.9m0 65H208.6c-39.9 0-72.6-32.7-72.6-72.6v-571.9c0-39.9 32.7-72.6 72.6-72.6h345.7c9 0 12.8 11.5 5.6 16.9C499.2 83 460 155.20000000000005 460 236.5c0 128.2 97.4 233.6 222.2 246.2 10.6 1.1 18.8 10 18.8 20.7v162c0 39.9-32.7 72.6-72.6 72.6z"  horiz-adv-x="1024" />

    
    <glyph glyph-name="xiangmubiaoqian" unicode="&#58903;" d="M847.3 594c10.1 0 18.7-8.5 18.7-18.7v-409.7c0-10.1-8.5-18.7-18.7-18.7H174.7c-10.1 0-18.7 8.5-18.7 18.7V575.3c0 10.1 8.5 18.7 18.7 18.7h672.6m0 65H174.7c-46 0-83.7-37.6-83.7-83.7v-409.7c0-46 37.6-83.7 83.7-83.7h672.7c46 0 83.7 37.6 83.7 83.7V575.3c-0.1 46.1-37.7 83.7-83.8 83.7zM269 490.8c-22.6 0-41-18.4-41-41s18.4-41 41-41 41 18.4 41 41-18.4 41-41 41zM269 330.8c-22.6 0-41-18.4-41-41s18.4-41 41-41 41 18.4 41 41-18.4 41-41 41zM762.5 482.2h-380c-17.9 0-32.5-14.6-32.5-32.5s14.6-32.5 32.5-32.5h380c17.9 0 32.5 14.6 32.5 32.5s-14.6 32.5-32.5 32.5zM762.5 322.2h-380c-17.9 0-32.5-14.6-32.5-32.5s14.6-32.5 32.5-32.5h380c17.9 0 32.5 14.6 32.5 32.5s-14.6 32.5-32.5 32.5z"  horiz-adv-x="1024" />

    
    <glyph glyph-name="zhiyeguwen" unicode="&#58904;" d="M503.1 733.1c70.1 0 127.1-56.3 127.1-125.5s-57-125.5-127.1-125.5C433 482 376 538.3 376 607.6c0 69.2 57 125.5 127.1 125.5m0 60c-103.2 0-187.1-83.2-187.1-185.5S399.9 422 503.1 422c103.2 0 187.1 83.2 187.1 185.5s-83.9 185.6-187.1 185.6zM793.9 306c8.8 0 16.3-7.4 16.3-16.3v-213.5c0-8.8-7.4-16.3-16.3-16.3H212.4c-8.8 0-16.3 7.4-16.3 16.3V289.7c0 8.8 7.4 16.3 16.3 16.3h581.5m0 65H212.4c-44.7 0-81.3-36.6-81.3-81.3v-213.5c0-44.7 36.6-81.3 81.3-81.3h581.5c44.7 0 81.3 36.6 81.3 81.3V289.7c-0.1 44.7-36.6 81.3-81.3 81.3z"  horiz-adv-x="1024" />

    
    <glyph glyph-name="yonghuguanli" unicode="&#58905;" d="M428.6 722.1c70.1 0 127.1-56.3 127.1-125.5s-57-125.5-127.1-125.5-127.1 56.3-127.1 125.5 57 125.5 127.1 125.5m0 60c-103.2 0-187.1-83.2-187.1-185.5s83.9-185.5 187.1-185.5c103.2 0 187.1 83.2 187.1 185.5 0 102.2-83.9 185.5-187.1 185.5zM684.7 287.1c17.4-9.6 36.2-14.6 55.7-14.6 19.9 0 38.8 4.6 55.4 13.1 0.1-3.3 0.4-6.6 0.8-10 2.1-16.2 7.6-32.1 16-46.2 8.6-14.5 19.2-26.7 31.6-36.1 3.9-2.9 7.9-5.6 12.1-8-17.8-10.6-32.7-25.3-42.6-42.7l-0.1-0.2-0.1-0.2c-9.8-17.4-15.1-36.3-15.8-55.8-17.1 9.3-35.7 14.1-54.8 14.1-20.3 0-39.9-5-57.1-14.3-0.1 3.7-0.4 7.4-0.9 11.1-2.1 16.1-7.6 32.1-16 46.2-8.6 14.6-19.2 26.7-31.6 36.1-3.5 2.7-7.2 5.1-10.9 7.3 17.7 10.6 32.4 25.2 42.3 42.5l0.1 0.2 0.1 0.2c10 18 15.3 37.3 15.8 57.3m3.1 74.8c-2.4 0-4.7-0.5-6.7-1.2-22.4-9.5-41.3-20.6-57.6-34.4-6-4.3-8.6-12-6-18.9 4.3-16.3 2.6-31.8-5.2-45.6-6.9-12-19.8-21.5-35.3-25.8-0.9 0-0.9 0-1.7-0.9-5.2-2.6-8.6-6.9-11.2-12.9v-0.9c-2.6-12.9-3.4-24.1-3.4-35.3 0-11.2 0.9-24.1 3.4-34.4 0.9-6.9 5.2-12.9 12.9-14.6h0.9c15.5-3.4 26.7-12 35.3-26.7 7.7-12.9 10.3-29.2 5.2-43.9-2.6-6-0.9-13.8 5.2-18.9 16.3-15.5 36.1-27.5 59.3-35.3 0.9 0 1.7-0.9 3.4-0.9h2.6c4.3 0 9.5 1.7 13.8 6 9.5 11.2 24.1 18.1 40.4 18.1 14.6 0 28.4-6.9 40.4-18.9 3.4-3.4 7.7-6 12-6 1.7 0 4.3 0 6 0.9 22.4 9.5 41.3 20.6 57.6 34.4 6 3.4 8.6 12 6 18.9-4.3 16.3-2.6 31.8 5.2 45.6 6.9 12 19.8 21.5 35.3 25.8 0.9 0 0.9 0 1.7 0.9 5.2 2.6 8.6 6.9 11.2 12.9v0.9c2.6 12.9 3.4 24.1 3.4 35.3-0.9 12-1.7 24.1-4.3 35.3-0.9 6.9-5.2 12.9-12.9 14.6h-0.9c-15.5 3.4-26.7 12-35.3 26.7-7.7 12.9-10.3 29.2-5.2 43.9 2.6 6 0.9 13.8-5.2 18.9-16.3 15.5-36.1 27.5-58.5 35.3-1.8 0.8-3.7 1.2-5.6 1.2-4.5 0-9.1-2.1-13.3-6.3-9.5-12-24.1-18.1-40.4-18.1-14.6 0-28.4 6.9-40.4 18.9-4.1 4.1-8.3 5.4-12.1 5.4zM738.8 186.2m-37.8 0a37.8 37.8 0 1 1 75.6 0 37.8 37.8 0 1 1-75.6 0ZM479.1 283c-9.3-30-14.1-61.2-14.1-93 0-26 3.2-51.9 9.5-76.9 5.4-21.4 13.1-42.3 23-62.1H256.6c-30.8 0-59.9 12.1-81.9 34.1-22 22-34.1 51.1-34.1 81.9 0 30.8 12.1 59.9 34.1 81.9 22 22 51.1 34.1 81.9 34.1h222.5m107.7 65H256.6c-99.6 0-181-81.4-181-181 0-99.5 81.4-181 181-181h364c5.2 0 10.3 0.2 15.4 0.7-64.1 44.8-106 119.2-106 203.3 0 60 21.3 115.1 56.8 158z"  horiz-adv-x="1024" />

    
    <glyph glyph-name="renchouguanli" unicode="&#58906;" d="M535 620H282c-17.6 0-32-14.4-32-32s14.4-32 32-32h253c17.6 0 32 14.4 32 32s-14.4 32-32 32zM376 414h-94c-17.6 0-32-14.4-32-32s14.4-32 32-32h94c17.6 0 32 14.4 32 32s-14.4 32-32 32zM803 248.20000000000005H695c-17.6 0-32-14.4-32-32s14.4-32 32-32h108c17.6 0 32 14.4 32 32s-14.4 32-32 32zM695 370c-17.6 0-32-14.4-32-32v-122c0-17.6 14.4-32 32-32s32 14.4 32 32V338c0 17.6-14.4 32-32 32zM705.5 376c37.3 0 72.3-14.5 98.6-40.9 26.3-26.3 40.9-61.4 40.9-98.6s-14.5-72.3-40.9-98.6c-26.3-26.3-61.4-40.9-98.6-40.9s-72.3 14.5-98.6 40.9c-26.3 26.3-40.9 61.4-40.9 98.6s14.5 72.3 40.9 98.6c26.3 26.4 61.3 40.9 98.6 40.9m0 65C592.6 441 501 349.4 501 236.5S592.6 32 705.5 32 910 123.60000000000002 910 236.5 818.4 441 705.5 441zM628.4 673c4 0 7.6-3.5 7.6-7.6v-124.7c-61.2-14.3-116.9-46.9-159.8-94.1C423.8 389 395 314.4 395 236.5c0-25.1 3-50.2 8.9-74.4 5.8-23.6 14.3-46.5 25.4-68.1 1.4-2.7 2.8-5.3 4.2-7.9h-225c-4 0-7.6 3.5-7.6 7.6V665.4c0 4 3.5 7.6 7.6 7.6h419.9m0 65H208.6c-39.9 0-72.6-32.7-72.6-72.6v-571.9c0-39.9 32.7-72.6 72.6-72.6h345.7c9 0 12.8 11.5 5.6 16.9C499.2 83 460 155.20000000000005 460 236.5c0 128.2 97.4 233.6 222.2 246.2 10.6 1.1 18.8 10 18.8 20.7v162c0 39.9-32.7 72.6-72.6 72.6z"  horiz-adv-x="1024" />

    
    <glyph glyph-name="yewubiangeng" unicode="&#58907;" d="M801.3 537c10.1 0 18.7-8.5 18.7-18.7v-409.7c0-10.1-8.5-18.7-18.7-18.7H222.7c-10.1 0-18.7 8.5-18.7 18.7V518.3c0 10.1 8.5 18.7 18.7 18.7h578.6m0 65H222.7c-46 0-83.7-37.6-83.7-83.7v-409.7c0-46 37.6-83.7 83.7-83.7h578.7c46 0 83.7 37.6 83.7 83.7V518.3c-0.1 46.1-37.7 83.7-83.8 83.7zM552.7 707c27.9 0 54.6-12.8 75.3-35.9 10.8-12.1 19.3-26.3 25.4-42.1 3.3-8.7 5.8-17.7 7.4-26.9H363.2c1.6 9.2 4.1 18.2 7.4 26.9 6 15.9 14.6 30 25.4 42.1 20.7 23.2 47.5 35.9 75.3 35.9h81.4m0 65h-81.4C374.9 772 296 683.7 296 575.8V537h432v38.8C728 683.7 649.1 772 552.7 772zM327 472c-30.4 0-55-24.6-55-55s24.6-55 55-55 55 24.6 55 55-24.6 55-55 55zM691 472c-30.4 0-55-24.6-55-55s24.6-55 55-55 55 24.6 55 55-24.6 55-55 55z"  horiz-adv-x="1024" />

    
    <glyph glyph-name="tuipanguanli" unicode="&#58908;" d="M685.7 288.1c17.4-9.6 36.2-14.6 55.7-14.6 19.9 0 38.8 4.6 55.4 13.1 0.1-3.3 0.4-6.6 0.8-10 2.1-16.2 7.6-32.1 16-46.2 8.6-14.5 19.2-26.7 31.6-36.1 3.9-2.9 7.9-5.6 12.1-8-17.8-10.6-32.7-25.3-42.6-42.7l-0.1-0.2-0.1-0.2c-9.8-17.4-15.1-36.3-15.8-55.8-17.1 9.3-35.7 14.1-54.8 14.1-20.3 0-39.9-5-57.1-14.3-0.1 3.7-0.4 7.4-0.9 11.1-2.1 16.2-7.6 32.1-16 46.2-8.6 14.5-19.2 26.7-31.6 36.1-3.5 2.7-7.2 5.1-10.9 7.3 17.7 10.6 32.4 25.2 42.3 42.5l0.1 0.2 0.1 0.2c10 18 15.3 37.3 15.8 57.3m3.1 74.8c-2.4 0-4.7-0.5-6.7-1.2-22.4-9.5-41.3-20.6-57.6-34.4-6-4.3-8.6-12-6-18.9 4.3-16.3 2.6-31.8-5.2-45.6-6.9-12-19.8-21.5-35.3-25.8-0.9 0-0.9 0-1.7-0.9-5.2-2.6-8.6-6.9-11.2-12.9v-0.9c-2.6-12.9-3.4-24.1-3.4-35.3 0-11.2 0.9-24.1 3.4-34.4 0.9-6.9 5.2-12.9 12.9-14.6h0.9c15.5-3.4 26.7-12 35.3-26.7 7.7-12.9 10.3-29.2 5.2-43.9-2.6-6-0.9-13.8 5.2-18.9 16.3-15.5 36.1-27.5 59.3-35.3 0.9 0 1.7-0.9 3.4-0.9h2.6c4.3 0 9.5 1.7 13.8 6 9.5 11.2 24.1 18.1 40.4 18.1 14.6 0 28.4-6.9 40.4-18.9 3.4-3.4 7.7-6 12-6 1.7 0 4.3 0 6 0.9 22.4 9.5 41.3 20.6 57.6 34.4 6 3.4 8.6 12 6 18.9-4.3 16.3-2.6 31.8 5.2 45.6 6.9 12 19.8 21.5 35.3 25.8 0.9 0 0.9 0 1.7 0.9 5.2 2.6 8.6 6.9 11.2 12.9v0.9c2.6 12.9 3.4 24.1 3.4 35.3-0.9 12-1.7 24.1-4.3 35.3-0.9 6.9-5.2 12.9-12.9 14.6h-0.9c-15.5 3.4-26.7 12-35.3 26.7-7.7 12.9-10.3 29.2-5.2 43.9 2.6 6 0.9 13.8-5.2 18.9-16.3 15.5-36.1 27.5-58.5 35.3-1.8 0.8-3.7 1.2-5.6 1.2-4.5 0-9.1-2.1-13.3-6.3-9.5-12-24.1-18.1-40.4-18.1-14.6 0-28.4 6.9-40.4 18.9-4.1 4.1-8.3 5.4-12.1 5.4zM739.8 187.2m-37.8 0a37.8 37.8 0 1 1 75.6 0 37.8 37.8 0 1 1-75.6 0ZM346.8 625.4H398c7.1 0 12.8-5.7 12.8-12.8v-51.2c0-7.1-5.7-12.8-12.8-12.8h-51.2c-7.1 0-12.8 5.7-12.8 12.8v51.2c0 7.1 5.7 12.8 12.8 12.8zM469.8 625.4H521c7.1 0 12.8-5.7 12.8-12.8v-51.2c0-7.1-5.7-12.8-12.8-12.8h-51.2c-7.1 0-12.8 5.7-12.8 12.8v51.2c0 7.1 5.7 12.8 12.8 12.8zM346.8 494.4H398c7.1 0 12.8-5.7 12.8-12.8v-51.2c0-7.1-5.7-12.8-12.8-12.8h-51.2c-7.1 0-12.8 5.7-12.8 12.8v51.2c0 7.1 5.7 12.8 12.8 12.8zM469.8 494.4H521c7.1 0 12.8-5.7 12.8-12.8v-51.2c0-7.1-5.7-12.8-12.8-12.8h-51.2c-7.1 0-12.8 5.7-12.8 12.8v51.2c0 7.1 5.7 12.8 12.8 12.8zM346.8 363.4H398c7.1 0 12.8-5.7 12.8-12.8v-51.2c0-7.1-5.7-12.8-12.8-12.8h-51.2c-7.1 0-12.8 5.7-12.8 12.8v51.2c0 7.1 5.7 12.8 12.8 12.8zM469.8 363.4H521c7.1 0 12.8-5.7 12.8-12.8v-51.2c0-7.1-5.7-12.8-12.8-12.8h-51.2c-7.1 0-12.8 5.7-12.8 12.8v51.2c0 7.1 5.7 12.8 12.8 12.8zM584 702c3.2 0 6-2.9 6-6v-272.5c-77.7-52-125-139.4-125-234 0-38 7.5-74.8 22.2-109.6 0.1-0.3 0.3-0.6 0.4-0.9H282.5l-0.5 5.5V696c0 3.2 2.9 6 6 6h296m0 65H288c-39.1 0-71-32-71-71v-611c0-2 0.1-4 0.3-6h-71.1c-18.1 0-33.4-14.8-33.2-32.9 0.2-17.7 14.8-32.1 32.5-32.1h438.8c11.6 0 17.3 14.2 9.1 22.4-39.2 39.2-63.4 93.3-63.4 153.1 0 82.2 45.9 153.7 113.4 190.4 7.2 3.9 11.6 11.4 11.6 19.5V696c0 39-32 71-71 71z"  horiz-adv-x="1024" />

    
    <glyph glyph-name="zidianguanli" unicode="&#58909;" d="M746.6-1H259.4c-41.6 0-75.4 33.8-75.4 75.4V692.6c0 41.6 33.8 75.4 75.4 75.4h487.2c41.6 0 75.4-33.8 75.4-75.4v-618.2c0-41.6-33.8-75.4-75.4-75.4zM259.4 703c-5.6 0-10.4-4.8-10.4-10.4v-618.2c0-5.6 4.8-10.4 10.4-10.4h487.2c5.6 0 10.4 4.8 10.4 10.4V692.6c0 5.6-4.8 10.4-10.4 10.4H259.4zM586.5 606h-247c-17.9 0-32.5-14.6-32.5-32.5s14.6-32.5 32.5-32.5h247c17.9 0 32.5 14.6 32.5 32.5S604.4 606 586.5 606zM666.5 448h-327c-17.9 0-32.5-14.6-32.5-32.5s14.6-32.5 32.5-32.5h327c17.9 0 32.5 14.6 32.5 32.5S684.4 448 666.5 448z"  horiz-adv-x="1024" />

    
    <glyph glyph-name="huijikemushezhi" unicode="&#58910;" d="M775 632c19.3 0 35-15.7 35-35v-466c0-12.5-6.5-20.8-10.3-24.7-3.9-3.9-12.2-10.3-24.7-10.3H238c-12.5 0-20.8 6.5-24.7 10.3-3.9 3.9-10.3 12.2-10.3 24.7V597c0 19.3 15.7 35 35 35h537m0 65H238c-55.2 0-100-44.8-100-100v-466c0-55 45-100 100-100h537c55 0 100 45 100 100V597c0 55.2-44.8 100-100 100zM326.9 534h-34.8c-8.3 0-15.1-6.8-15.1-15.1v-34.8c0-8.3 6.8-15.1 15.1-15.1h34.8c8.3 0 15.1 6.8 15.1 15.1v34.8c0 8.3-6.8 15.1-15.1 15.1zM729.9 534H408.1c-8.3 0-15.1-6.8-15.1-15.1v-34.8c0-8.3 6.8-15.1 15.1-15.1h321.8c8.3 0 15.1 6.8 15.1 15.1v34.8c0 8.3-6.8 15.1-15.1 15.1zM326.9 387h-34.8c-8.3 0-15.1-6.8-15.1-15.1v-34.8c0-8.3 6.8-15.1 15.1-15.1h34.8c8.3 0 15.1 6.8 15.1 15.1v34.8c0 8.3-6.8 15.1-15.1 15.1zM729.9 387H408.1c-8.3 0-15.1-6.8-15.1-15.1v-34.8c0-8.3 6.8-15.1 15.1-15.1h321.8c8.3 0 15.1 6.8 15.1 15.1v34.8c0 8.3-6.8 15.1-15.1 15.1zM326.9 240h-34.8c-8.3 0-15.1-6.8-15.1-15.1v-34.8c0-8.3 6.8-15.1 15.1-15.1h34.8c8.3 0 15.1 6.8 15.1 15.1v34.8c0 8.3-6.8 15.1-15.1 15.1zM729.9 240H408.1c-8.3 0-15.1-6.8-15.1-15.1v-34.8c0-8.3 6.8-15.1 15.1-15.1h321.8c8.3 0 15.1 6.8 15.1 15.1v34.8c0 8.3-6.8 15.1-15.1 15.1z"  horiz-adv-x="1024" />

    
    <glyph glyph-name="goufangquanguanli" unicode="&#58911;" d="M803.1 608.1c1.4 0 2.5-1.2 2.5-2.6v-111c-18.5-10.6-37.9-24-52.3-42.7-16.7-21.5-24.8-47-24.8-77.7 0-30.6 8.1-56.1 24.9-77.9 12.2-15.9 28.6-29.3 52.3-42.6v-110.9c0-1.4-1.2-2.6-2.5-2.6H224.6c-1.3 0-2.5 1.2-2.5 2.6V251.4c13.7 6.2 29.4 15.5 43.4 30.6 11.1 11.9 19.5 25.7 25.2 41.3 5.7 15.4 8.5 32.5 8.5 50.9 0 34.4-13.5 66.2-39 92-12.6 12.7-26.4 22.1-38.1 28.7V605.5c0 1.4 1.2 2.6 2.5 2.6h578.5m0 65H224.6c-37.2 0-67.5-30.3-67.5-67.6v-115.7c0-19.3 1.8-35 24.9-47.4 15.7-7.4 52.2-28.7 52.2-68.4 0-45.1-26.8-59.9-50.1-67.8l-2.1-1c-22.6-14.1-25-37.5-25-46.9v-115.7c0-37.3 30.3-67.6 67.5-67.6H803c37.2 0 67.5 30.3 67.5 67.6V258.4c0 25-6.9 34.2-24.5 47.3-39.8 20.4-52.6 37.2-52.6 68.4 0 31.3 11.9 46.7 53.6 69.1 22 14.6 23.5 27.4 23.5 46.7V605.5c0.1 37.3-30.2 67.6-67.4 67.6zM646.8 382H381c-8.3 0-15.1 6.8-15.1 15.1v34.8c0 8.3 6.8 15.1 15.1 15.1h265.8c8.3 0 15.1-6.8 15.1-15.1v-34.8c0-8.3-6.8-15.1-15.1-15.1zM496.1 387.7l-110 129.6c-5.4 6.3-4.6 15.9 1.7 21.3l26.5 22.5c6.3 5.4 15.9 4.6 21.3-1.7l110-129.6c5.4-6.3 4.6-15.9-1.7-21.3L517.4 386c-6.3-5.4-15.9-4.7-21.3 1.7zM532.7 387.7l110 129.6c5.4 6.3 4.6 15.9-1.7 21.3l-26.5 22.5c-6.3 5.4-15.9 4.6-21.3-1.7l-110-129.6c-5.4-6.3-4.6-15.9 1.7-21.3l26.5-22.5c6.4-5.4 15.9-4.7 21.3 1.7zM647.1 272H381.3c-8.3 0-15.1 6.8-15.1 15.1v34.8c0 8.3 6.8 15.1 15.1 15.1h265.8c8.3 0 15.1-6.8 15.1-15.1v-34.8c0-8.3-6.8-15.1-15.1-15.1zM482 195.1V428.9c0 8.3 6.8 15.1 15.1 15.1h34.8c8.3 0 15.1-6.8 15.1-15.1v-233.8c0-8.3-6.8-15.1-15.1-15.1h-34.8c-8.3 0-15.1 6.8-15.1 15.1z"  horiz-adv-x="1024" />

    
    <glyph glyph-name="shoufukemuduizhao" unicode="&#58912;" d="M775 632c19.3 0 35-15.7 35-35v-466c0-12.5-6.5-20.8-10.3-24.7-3.9-3.9-12.2-10.3-24.7-10.3H238c-12.5 0-20.8 6.5-24.7 10.3-3.9 3.9-10.3 12.2-10.3 24.7V597c0 19.3 15.7 35 35 35h537m0 65H238c-55.2 0-100-44.8-100-100v-466c0-55 45-100 100-100h537c55 0 100 45 100 100V597c0 55.2-44.8 100-100 100zM326.9 482h-34.8c-8.3 0-15.1-6.8-15.1-15.1v-34.8c0-8.3 6.8-15.1 15.1-15.1h34.8c8.3 0 15.1 6.8 15.1 15.1v34.8c0 8.3-6.8 15.1-15.1 15.1zM666.5 482H408c-8.3 0-15-6.7-15-15v-35c0-8.3 6.7-15 15-15h327.6c3.3 0 4.9 4.1 2.4 6.3l-59.1 53.9c-3.3 3.1-7.8 4.8-12.4 4.8zM723.9 305h-34.8c-8.3 0-15.1-6.8-15.1-15.1v-34.8c0-8.3 6.8-15.1 15.1-15.1h34.8c8.3 0 15.1 6.8 15.1 15.1v34.8c0 8.3-6.8 15.1-15.1 15.1zM608 305H349.5c-4.6 0-9-1.7-12.4-4.8L278 246.3c-2.4-2.2-0.9-6.3 2.4-6.3H608c8.3 0 15 6.7 15 15v35c0 8.3-6.7 15-15 15z"  horiz-adv-x="1024" />

    
    <glyph glyph-name="yuqiguanli" unicode="&#58913;" d="M802 632c4.2 0 8-3.7 8-8v-520c0-4.2-3.7-8-8-8H211c-4.2 0-8 3.7-8 8V624c0 4.2 3.7 8 8 8h591m0 65H211c-40.1 0-73-32.8-73-73v-520c0-40.1 32.8-73 73-73h591c40.1 0 73 32.8 73 73V624c0 40.2-32.8 73-73 73zM326 755c-17.9 0-32.5-14.6-32.5-32.5v-97c0-17.9 14.6-32.5 32.5-32.5s32.5 14.6 32.5 32.5v97c0 17.9-14.6 32.5-32.5 32.5zM683.5 755c-17.9 0-32.5-14.6-32.5-32.5v-97c0-17.9 14.6-32.5 32.5-32.5s32.5 14.6 32.5 32.5v97c0 17.9-14.6 32.5-32.5 32.5zM839.5 575h-655c-17.9 0-32.5-14.6-32.5-32.5s14.6-32.5 32.5-32.5h655c17.9 0 32.5 14.6 32.5 32.5S857.4 575 839.5 575zM450 399.1c17.4-9.6 36.2-14.6 55.7-14.6 19.9 0 38.8 4.6 55.4 13.1 0.1-3.3 0.4-6.6 0.8-10 2.1-16.2 7.6-32.1 16-46.2 8.6-14.5 19.2-26.7 31.6-36.1 3.9-2.9 7.9-5.6 12.1-8-17.8-10.6-32.7-25.3-42.6-42.7l-0.1-0.2-0.1-0.2c-9.8-17.4-15.1-36.3-15.8-55.8-17.1 9.3-35.7 14.1-54.8 14.1-20.3 0-39.9-5-57.1-14.3-0.1 3.7-0.4 7.4-0.9 11.1-2.1 16.2-7.6 32.1-16 46.2-8.6 14.5-19.2 26.7-31.6 36.1-3.5 2.7-7.2 5.1-10.9 7.3 17.7 10.6 32.4 25.2 42.3 42.5l0.1 0.2 0.1 0.2c10 18 15.3 37.3 15.8 57.3m3 74.8c-2.4 0-4.7-0.5-6.7-1.2-22.4-9.5-41.3-20.6-57.6-34.4-6-4.3-8.6-12-6-18.9 4.3-16.3 2.6-31.8-5.2-45.6-6.9-12-19.8-21.5-35.3-25.8-0.9 0-0.9 0-1.7-0.9-5.2-2.6-8.6-6.9-11.2-12.9v-0.9c-2.6-12.9-3.4-24.1-3.4-35.3 0-11.2 0.9-24.1 3.4-34.4 0.9-6.9 5.2-12.9 12.9-14.6h0.9c15.5-3.4 26.7-12 35.3-26.7 7.7-12.9 10.3-29.2 5.2-43.9-2.6-6-0.9-13.8 5.2-18.9 16.3-15.5 36.1-27.5 59.3-35.3 0.9 0 1.7-0.9 3.4-0.9h2.6c4.3 0 9.5 1.7 13.8 6 9.5 11.2 24.1 18.1 40.4 18.1 14.6 0 28.4-6.9 40.4-18.9 3.4-3.4 7.7-6 12-6 1.7 0 4.3 0 6 0.9 22.4 9.5 41.3 20.6 57.6 34.4 6 3.4 8.6 12 6 18.9-4.3 16.3-2.6 31.8 5.2 45.6 6.9 12 19.8 21.5 35.3 25.8 0.9 0 0.9 0 1.7 0.9 5.2 2.6 8.6 6.9 11.2 12.9v0.9c2.6 12.9 3.4 24.1 3.4 35.3-0.9 12-1.7 24.1-4.3 35.3-0.9 6.9-5.2 12.9-12.9 14.6h-0.9c-15.5 3.4-26.7 12-35.3 26.7-7.7 12.9-10.3 29.2-5.2 43.9 2.6 6 0.9 13.8-5.2 18.9-16.2 15.5-36 27.5-58.3 35.2-1.8 0.8-3.7 1.2-5.6 1.2-4.5 0-9.1-2.1-13.3-6.3-9.5-12-24.1-18.1-40.4-18.1-14.6 0-28.4 6.9-40.4 18.9-4.3 4.2-8.5 5.5-12.3 5.5zM506.5 298.2m-37.8 0a37.8 37.8 0 1 1 75.6 0 37.8 37.8 0 1 1-75.6 0Z"  horiz-adv-x="1024" />

    
    <glyph glyph-name="pingzhengguanli" unicode="&#58916;" d="M600 590H282c-17.6 0-32-14.4-32-32s14.4-32 32-32h318c17.6 0 32 14.4 32 32s-14.4 32-32 32zM510 414H282c-17.6 0-32-14.4-32-32s14.4-32 32-32h228c17.6 0 32 14.4 32 32s-14.4 32-32 32zM725 47.7c-16.3 0-31-6.9-40.4-18.1-4.3-4.3-9.5-6-13.8-6h-2.6c-1.7 0-2.6 0.9-3.4 0.9-23.2 7.7-43 19.8-59.3 35.3-6 5.2-7.7 12.9-5.2 18.9 0.9 2.4 1.5 4.9 1.9 7.4H208.6c-4 0-7.6 3.5-7.6 7.6V665.4c0 4 3.5 7.6 7.6 7.6h467.8c4 0 7.6-3.5 7.6-7.6v-298.9c11.5-10.8 24.6-17 38.4-17 9.7 0 18.8 2.2 26.6 6.4V665.4c0 39.9-32.7 72.6-72.6 72.6H208.6c-39.9 0-72.6-32.7-72.6-72.6v-571.8c0-39.9 32.7-72.6 72.6-72.6h467.8c22.3 0 42.3 10.2 55.6 26.1-2.3 0.4-4.6 0.6-7 0.6zM666.5 299.1c17.4-9.6 36.2-14.6 55.7-14.6 19.9 0 38.8 4.6 55.4 13.1 0.1-3.3 0.4-6.6 0.8-10 2.1-16.2 7.6-32.1 16-46.2 8.6-14.5 19.2-26.7 31.6-36.1 3.9-2.9 7.9-5.6 12.1-8-17.8-10.6-32.7-25.3-42.6-42.7l-0.1-0.2-0.1-0.2c-9.8-17.4-15.1-36.3-15.8-55.8-17.1 9.3-35.7 14.1-54.8 14.1-20.3 0-39.9-5-57.1-14.3-0.1 3.7-0.4 7.4-0.9 11.1-2.1 16.2-7.6 32.1-16 46.2-8.6 14.5-19.2 26.7-31.6 36.1-3.5 2.7-7.2 5.1-10.9 7.3 17.7 10.6 32.4 25.2 42.3 42.5l0.1 0.2 0.1 0.2c10 18 15.3 37.3 15.8 57.3m3 74.8c-2.4 0-4.7-0.5-6.7-1.2-22.4-9.5-41.3-20.6-57.6-34.4-6-4.3-8.6-12-6-18.9 4.3-16.3 2.6-31.8-5.2-45.6-6.9-12-19.8-21.5-35.3-25.8-0.9 0-0.9 0-1.7-0.9-5.2-2.6-8.6-6.9-11.2-12.9v-0.9c-2.6-12.9-3.4-24.1-3.4-35.3 0-11.2 0.9-24.1 3.4-34.4 0.9-6.9 5.2-12.9 12.9-14.6h0.9c15.5-3.4 26.7-12 35.3-26.7 7.7-12.9 10.3-29.2 5.2-43.9-2.6-6-0.9-13.8 5.2-18.9 16.3-15.5 36.1-27.5 59.3-35.3 0.9 0 1.7-0.9 3.4-0.9h2.6c4.3 0 9.5 1.7 13.8 6 9.5 11.2 24.1 18.1 40.4 18.1 14.6 0 28.4-6.9 40.4-18.9 3.4-3.4 7.7-6 12-6 1.7 0 4.3 0 6 0.9 22.4 9.5 41.3 20.6 57.6 34.4 6 3.4 8.6 12 6 18.9-4.3 16.3-2.6 31.8 5.2 45.6 6.9 12 19.8 21.5 35.3 25.8 0.9 0 0.9 0 1.7 0.9 5.2 2.6 8.6 6.9 11.2 12.9v0.9c2.6 12.9 3.4 24.1 3.4 35.3-0.9 12-1.7 24.1-4.3 35.3-0.9 6.9-5.2 12.9-12.9 14.6h-0.9c-15.5 3.4-26.7 12-35.3 26.7-7.7 12.9-10.3 29.2-5.2 43.9 2.6 6 0.9 13.8-5.2 18.9-16.3 15.5-36.1 27.5-58.5 35.3-1.8 0.8-3.7 1.2-5.6 1.2-4.5 0-9.1-2.1-13.3-6.3-9.5-12-24.1-18.1-40.4-18.1-14.6 0-28.4 6.9-40.4 18.9-4.1 4.1-8.3 5.4-12.1 5.4zM723 202.2m-37.8 0a37.8 37.8 0 1 1 75.6 0 37.8 37.8 0 1 1-75.6 0Z"  horiz-adv-x="1024" />

    
    <glyph glyph-name="zuzhijiegou" unicode="&#58917;" d="M258 201.8v-70h-70v70h70m24.2 65H163.8c-22.4 0-40.8-18.4-40.8-40.8v-118.4c0-22.4 18.4-40.8 40.8-40.8h118.4c22.4 0 40.8 18.4 40.8 40.8V225.9c0 22.5-18.4 40.9-40.8 40.9zM547.5 202v-70h-70v70h70m24.2 65H453.3c-22.4 0-40.8-18.4-40.8-40.8v-118.4c0-22.4 18.4-40.8 40.8-40.8h118.4c22.4 0 40.8 18.4 40.8 40.8V226.2c0 22.4-18.4 40.8-40.8 40.8zM548 599v-70h-70v70h70m24.2 65H453.8c-22.4 0-40.8-18.4-40.8-40.8v-118.4c0-22.4 18.4-40.8 40.8-40.8h118.4c22.4 0 40.8 18.4 40.8 40.8V623.2c0 22.4-18.4 40.8-40.8 40.8zM837 202v-70h-70v70h70m24.2 65H742.8c-22.4 0-40.8-18.4-40.8-40.8v-118.4c0-22.4 18.4-40.8 40.8-40.8h118.4c22.4 0 40.8 18.4 40.8 40.8V226.2c0 22.4-18.4 40.8-40.8 40.8zM801 388H243c-6.6 0-12-5.4-12-12v-16c0-6.6 5.4-12 12-12h558c6.6 0 12 5.4 12 12v16c0 6.6-5.4 12-12 12zM259 388h-16c-6.6 0-12-5.4-12-12v-126c0-6.6 5.4-12 12-12h16c6.6 0 12 5.4 12 12V376c0 6.6-5.4 12-12 12zM521 508h-16c-6.6 0-12-5.4-12-12v-126c0-6.6 5.4-12 12-12h16c6.6 0 12 5.4 12 12V496c0 6.6-5.4 12-12 12zM521 383h-16c-6.6 0-12-5.4-12-12v-126c0-6.6 5.4-12 12-12h16c6.6 0 12 5.4 12 12V371c0 6.6-5.4 12-12 12zM801 388h-16c-6.6 0-12-5.4-12-12v-126c0-6.6 5.4-12 12-12h16c6.6 0 12 5.4 12 12V376c0 6.6-5.4 12-12 12z"  horiz-adv-x="1024" />

    
    <glyph glyph-name="gongzuotaishouye" unicode="&#58918;" d="M691.4 18.5H319.6c-54.7 0-99.1 41.9-99.1 93.5V432.7h65V112c0-15.5 15.6-28.5 34.1-28.5h371.7c18.5 0 34.1 13.1 34.1 28.5V432.7h65V112c0.1-51.6-44.4-93.5-99-93.5zM529.1 673.6L184.3 328.8c-12.6-12.6-33.3-12.6-46 0-12.6 12.6-12.6 33.3 0 46l344.8 344.8c12.6 12.6 33.3 12.6 46 0 12.6-12.7 12.6-33.4 0-46zM827.5 329.2L482.7 673.9c-12.6 12.6-12.6 33.3 0 46 12.6 12.6 33.3 12.6 46 0l344.8-344.8c12.6-12.6 12.6-33.3 0-46-12.7-12.6-33.4-12.6-46 0.1zM583.5 26h-164c-24.5 0-44.5 20-44.5 44.5v247c0 24.5 20 44.5 44.5 44.5h164c24.5 0 44.5-20 44.5-44.5v-247c0-24.5-20-44.5-44.5-44.5zM440 91h123V297H440v-206z"  horiz-adv-x="1024" />

    
    <glyph glyph-name="gonggao" unicode="&#58919;" d="M791 599c4.2 0 8-3.7 8-8v-464c0-4.2-3.7-8-8-8H200c-4.2 0-8 3.7-8 8V591c0 4.2 3.7 8 8 8h591m0 65H200c-40.1 0-73-32.8-73-73v-464c0-40.1 32.8-73 73-73h591c40.1 0 73 32.8 73 73V591c0 40.2-32.8 73-73 73zM315 728c-17.9 0-32.5-14.6-32.5-32.5v-117c0-17.9 14.6-32.5 32.5-32.5s32.5 14.6 32.5 32.5v117c0 17.9-14.6 32.5-32.5 32.5zM672.5 728c-17.9 0-32.5-14.6-32.5-32.5v-117c0-17.9 14.6-32.5 32.5-32.5s32.5 14.6 32.5 32.5v117c0 17.9-14.6 32.5-32.5 32.5zM331 400c-22.6 0-41-18.4-41-41s18.4-41 41-41 41 18.4 41 41-18.4 41-41 41zM493.5 400c-22.6 0-41-18.4-41-41s18.4-41 41-41 41 18.4 41 41-18.4 41-41 41zM656 400c-22.6 0-41-18.4-41-41s18.4-41 41-41 41 18.4 41 41-18.4 41-41 41z"  horiz-adv-x="1024" />

    
    <glyph glyph-name="kehudaiban" unicode="&#58920;" d="M473.5 578h-197c-17.9 0-32.5-14.6-32.5-32.5s14.6-32.5 32.5-32.5h197c17.9 0 32.5 14.6 32.5 32.5S491.4 578 473.5 578zM544.5 420h-268c-17.9 0-32.5-14.6-32.5-32.5s14.6-32.5 32.5-32.5h268c17.9 0 32.5 14.6 32.5 32.5S562.4 420 544.5 420zM747 263.2H639c-17.6 0-32-14.4-32-32s14.4-32 32-32h108c17.6 0 32 14.4 32 32s-14.4 32-32 32zM639 385c-17.6 0-32-14.4-32-32v-122c0-17.6 14.4-32 32-32s32 14.4 32 32V353c0 17.6-14.4 32-32 32zM649.5 391c37.3 0 72.3-14.5 98.6-40.9 26.3-26.3 40.9-61.4 40.9-98.6s-14.5-72.3-40.9-98.6c-26.3-26.3-61.4-40.9-98.6-40.9s-72.3 14.5-98.6 40.9c-26.3 26.3-40.9 61.4-40.9 98.6s14.5 72.3 40.9 98.6c26.3 26.4 61.3 40.9 98.6 40.9m0 65C536.6 456 445 364.4 445 251.5S536.6 47 649.5 47 854 138.6 854 251.5 762.4 456 649.5 456zM586 97v15H213.5c-2.8 0-5 2.3-5 5V650c0 2.8 2.3 5 5 5h376.9c2.8 0 5-2.3 5-5v-230h65V650c0 38.7-31.4 70-70 70H213.5c-38.7 0-70-31.4-70-70v-533c0-38.7 31.4-70 70-70h376.9c31.7 0 58.5 21.1 67.1 50H586z"  horiz-adv-x="1024" />

    
    <glyph glyph-name="wodeliucheng" unicode="&#58921;" d="M266 240c24.3 0 44-19.7 44-44s-19.7-44-44-44-44 19.7-44 44 19.7 44 44 44m0 65c-60.2 0-109-48.8-109-109s48.8-109 109-109 109 48.8 109 109-48.8 109-109 109zM756 240c24.3 0 44-19.7 44-44s-19.7-44-44-44-44 19.7-44 44 19.7 44 44 44m0 65c-60.2 0-109-48.8-109-109s48.8-109 109-109 109 48.8 109 109-48.8 109-109 109zM511 665c24.3 0 44-19.7 44-44s-19.7-44-44-44-44 19.7-44 44 19.7 44 44 44m0 65c-60.2 0-109-48.8-109-109s48.8-109 109-109 109 48.8 109 109-48.8 109-109 109zM656 152.6c-16.2-12.6-34-23-53-31.1-29.2-12.3-60.2-18.6-92.2-18.6s-63.1 6.3-92.2 18.6c-18.9 8-36.5 18.3-52.6 30.8-8.9-20.4-23.9-37.5-42.7-49.1 51.5-40.9 116.7-65.3 187.6-65.3 71 0 136.2 24.5 187.8 65.5-18.9 11.6-33.8 28.8-42.7 49.2zM620 621c0-23-7.1-44.3-19.2-61.8 0.7-0.3 1.5-0.6 2.2-0.9 28.2-11.9 53.6-29 75.4-50.8s38.9-47.1 50.8-75.4c12.3-29.2 18.6-60.2 18.6-92.2 0-12-0.9-23.8-2.6-35.4 3.6 0.4 7.2 0.5 10.9 0.5 19.2 0 37.2-5 52.8-13.7 2.6 15.8 3.9 32 3.9 48.5 0 128.3-80 237.8-192.8 281.6v-0.4zM266 305c3.5 0 6.9-0.2 10.4-0.5-1.7 11.6-2.6 23.4-2.6 35.4 0 32 6.3 63.1 18.6 92.2 11.9 28.2 29 53.6 50.8 75.4 21.8 21.8 47.1 38.9 75.4 50.8 0.9 0.4 1.7 0.7 2.6 1.1-12.1 17.5-19.2 38.7-19.2 61.6v0.7C289 578 208.8 468.3 208.8 339.9c0-16.6 1.4-32.9 3.9-48.8 15.8 8.8 33.9 13.9 53.3 13.9z"  horiz-adv-x="1024" />

    
    <glyph glyph-name="xiaofangzi" unicode="&#58922;" d="M513.3 321.8c-46.4 0-84-37.6-84-84v-151.1h167.9V237.9c0 46.3-37.5 83.9-83.9 83.9zM261.4 422.6l-66.9-78.2c-7.8-8-20.3-8-28.1 0-7.8 8-7.8 20.9 0 28.8l336.8 345.7c3.9 4 9 6 14 6 5.1 0 10.2-2 14-6L868 373.2c7.8-8 7.8-20.9 0-28.8-7.8-8-20.3-8-28.1 0l-75 78.2v-268.7c0-57.1-45.1-100.8-100.8-100.8H362.2c-55.6 0-100.8 46.3-100.8 103.4V422.6z"  horiz-adv-x="1024" />

    
    <glyph glyph-name="youhuiquanchaxun" unicode="&#58914;" d="M546.5 684c34.8 0 68.5-6.8 100.2-20.2 30.7-13 58.2-31.5 81.9-55.2 23.7-23.7 42.2-51.2 55.2-81.9C797.2 495 804 461.3 804 426.5s-6.8-68.5-20.2-100.2c-13-30.7-31.5-58.2-55.2-81.9-23.7-23.7-51.2-42.2-81.9-55.2C615 175.8 581.3 169 546.5 169s-68.5 6.8-100.2 20.2c-30.7 13-58.2 31.5-81.9 55.2-23.7 23.7-42.2 51.2-55.2 81.9C295.8 358 289 391.7 289 426.5s6.8 68.5 20.2 100.2c13 30.7 31.5 58.2 55.2 81.9 23.7 23.7 51.2 42.2 81.9 55.2C478 677.2 511.7 684 546.5 684m0 65C368.4 749 224 604.6 224 426.5S368.4 104 546.5 104 869 248.4 869 426.5 724.6 749 546.5 749zM337.6 212.6c-8.5 0-16.9-3.2-23.3-9.6L187 75.7c-12.8-12.8-12.8-33.8 0-46.7 6.4-6.4 14.9-9.6 23.3-9.6s16.9 3.2 23.3 9.6L361 156.3c12.8 12.8 12.8 33.8 0 46.7-6.4 6.4-14.9 9.6-23.4 9.6z"  horiz-adv-x="1024" />

    
    <glyph glyph-name="kehugenjin" unicode="&#58915;" d="M503.1 733.1c70.1 0 127.1-56.3 127.1-125.5s-57-125.5-127.1-125.5C433 482 376 538.3 376 607.6c0 69.2 57 125.5 127.1 125.5m0 60c-103.2 0-187.1-83.2-187.1-185.5S399.9 422 503.1 422c103.2 0 187.1 83.2 187.1 185.5s-83.9 185.6-187.1 185.6zM757-20.5H249c-57.1 0-103.5 43.4-103.5 96.7V244.8c0 53.3 46.4 96.7 103.5 96.7h384.2c17.9 0 32.5-14.6 32.5-32.5s-14.6-32.5-32.5-32.5H249c-20.9 0-38.5-14.5-38.5-31.7v-168.6c0-17.2 17.6-31.7 38.5-31.7h508c20.9 0 38.5 14.5 38.5 31.7V244.8c0 17.9 14.6 32.5 32.5 32.5s32.5-14.6 32.5-32.5v-168.6c0-53.3-46.4-96.7-103.5-96.7zM734.6 285.7c-12.8-12.8-33.8-12.8-46.7 0l-81 81c-12.8 12.8-12.8 33.8 0 46.7 12.8 12.8 33.8 12.8 46.7 0l81-81c12.9-12.8 12.9-33.8 0-46.7zM734.6 332.8c12.8-12.8 12.8-33.8 0-46.7l-81-81c-12.8-12.8-33.8-12.8-46.7 0-12.8 12.8-12.8 33.8 0 46.7l81 81c12.9 12.8 33.9 12.8 46.7 0z"  horiz-adv-x="1024" />

    
    <glyph glyph-name="caiwujiekou" unicode="&#58923;" d="M309.1 396.3l19.7-19.7 174.1-178.8 0.3-0.3 0.3-0.3 15.3-15.3-34.2-34.2c-29.8-29.8-69.8-47-109.6-47-23.7 0-57.5 5-86.2 28.6l-28.5 32.6c-46.1 60.7-40.2 146.4 14.2 200l0.2 0.2 0.2 0.2 34.2 34m0 72.7c-11.9 0-23.8-4.5-32.8-13.6L229 408.1c-78.3-77.2-86.4-200.8-18.9-287.6l33-37.7c37.7-33 84.9-47.1 132-47.1 56.6 0 113.1 23.6 155.6 66L578 149c18.1 18.1 18.1 47.5 0 65.7l-28.4 28.4-174.5 179.1-33.2 33.2c-9.1 9.1-21 13.6-32.8 13.6zM637.3 657.2c23.7 0 57.5-5 86.2-28.6L752 596c46.1-60.7 40.1-146.4-14.2-200l-0.2-0.2-0.2-0.2-29.4-29.3-213.1 213 31.4 29.5 0.7 0.7 0.7 0.7c29.8 29.9 69.8 47 109.6 47m0 65c-56.6 0-113.1-23.6-155.6-66l-45.3-42.6c-19.1-18-19.5-48.1-1-66.7l239.7-239.7c9.1-9.1 21-13.6 32.8-13.6 11.9 0 23.8 4.5 32.8 13.6l42.6 42.6c78.3 77.2 86.4 200.8 18.9 287.6l-33 37.7c-37.6 32.9-84.8 47.1-131.9 47.1zM452 467.4c-8.5 0-16.9-3.2-23.3-9.6l-46-46c-12.8-12.8-12.8-33.8 0-46.7 6.4-6.4 14.9-9.6 23.3-9.6s16.9 3.2 23.3 9.6l46 46c12.8 12.8 12.8 33.8 0 46.7-6.4 6.4-14.9 9.6-23.3 9.6zM554 359.4c-8.5 0-16.9-3.2-23.3-9.6l-46-46c-12.8-12.8-12.8-33.8 0-46.7 6.4-6.4 14.9-9.6 23.3-9.6s16.9 3.2 23.3 9.6l46 46c12.8 12.8 12.8 33.8 0 46.7-6.4 6.4-14.9 9.6-23.3 9.6zM237 140.4c-8.5 0-16.9-3.2-23.3-9.6l-46-46c-12.8-12.8-12.8-33.8 0-46.7 6.4-6.4 14.9-9.6 23.3-9.6s16.9 3.2 23.3 9.6l46 46c12.8 12.8 12.8 33.8 0 46.7-6.4 6.4-14.9 9.6-23.3 9.6zM832 735.4c-8.5 0-16.9-3.2-23.3-9.6l-46-46c-12.8-12.8-12.8-33.8 0-46.7 6.4-6.4 14.9-9.6 23.3-9.6s16.9 3.2 23.3 9.6l46 46c12.8 12.8 12.8 33.8 0 46.7-6.4 6.4-14.9 9.6-23.3 9.6z"  horiz-adv-x="1024" />

    
    <glyph glyph-name="anjieguanli" unicode="&#58924;" d="M775-1.5H238c-73.1 0-132.5 59.4-132.5 132.5V534c0 17.9 14.6 32.5 32.5 32.5s32.5-14.6 32.5-32.5v-403c0-37.2 30.3-67.5 67.5-67.5h537c37.2 0 67.5 30.3 67.5 67.5V534c0 17.9 14.6 32.5 32.5 32.5s32.5-14.6 32.5-32.5v-403c0-73.1-59.4-132.5-132.5-132.5zM626.5 401H388c-17.6 0-32-14.4-32-32s14.4-32 32-32h238.5c17.6 0 32 14.4 32 32s-14.4 32-32 32zM878 697H140c-17.6 0-32-14.4-32-32s14.4-32 32-32h738c17.6 0 32 14.4 32 32s-14.4 32-32 32zM430.2 519.9c-5.4 0-10.9-1.4-15.9-4.3-15.2-8.8-20.5-28.5-11.7-43.7l68-117.8c5.9-10.2 16.7-16 27.8-16 5.4 0 10.9 1.4 15.9 4.3 15.2 8.8 20.5 28.5 11.7 43.7l-68 117.8c-5.9 10.2-16.8 16-27.8 16zM580.3 519.9c-11.1 0-21.9-5.7-27.8-16l-68-117.8c-8.8-15.2-3.5-34.9 11.7-43.7 5-2.9 10.5-4.3 15.9-4.3 11.1 0 21.9 5.7 27.8 16l68 117.8c8.8 15.2 3.5 34.9-11.7 43.7-5 2.9-10.4 4.3-15.9 4.3zM626.5 291H388c-17.6 0-32-14.4-32-32s14.4-32 32-32h238.5c17.6 0 32 14.4 32 32s-14.4 32-32 32zM507.2 389c-17.6 0-32-14.4-32-32v-192c0-17.6 14.4-32 32-32s32 14.4 32 32V357c0 17.6-14.4 32-32 32z"  horiz-adv-x="1024" />

    
    <glyph glyph-name="fangkuanguanli" unicode="&#58925;" d="M492.5-9.5c-51.8 0-102.1 10.2-149.5 30.2-45.7 19.3-86.8 47-122 82.3-35.3 35.3-62.9 76.3-82.3 122-20 47.4-30.2 97.7-30.2 149.5s10.2 102.1 30.2 149.5c19.3 45.7 47 86.8 82.3 122 35.3 35.3 76.3 62.9 122 82.3 47.4 20 97.7 30.2 149.5 30.2s102.1-10.2 149.5-30.2c45.7-19.3 86.8-47 122-82.3 35.3-35.3 62.9-76.3 82.3-122 20-47.4 30.2-97.7 30.2-149.5S866.3 272.4 846.3 225c-19.3-45.7-47-86.8-82.3-122-35.3-35.3-76.3-62.9-122-82.3-47.4-20-97.7-30.2-149.5-30.2z m0 703c-85.2 0-165.3-33.2-225.6-93.4-60.3-60.3-93.4-140.4-93.4-225.6s33.2-165.3 93.4-225.6c60.3-60.3 140.4-93.4 225.6-93.4s165.3 33.2 225.6 93.4c60.3 60.3 93.4 140.4 93.4 225.6s-33.2 165.3-93.4 225.6c-60.3 60.2-140.4 93.4-225.6 93.4zM525.3 351.7v61.8h106.3c18.1 0 32.8 14.7 32.8 32.8 0 18.1-14.7 32.8-32.8 32.8h-84.8l62.4 62.4c12.8 12.8 12.8 33.6 0 46.4-12.8 12.8-33.6 12.8-46.4 0l-66.4-66.4-66.4 66.4c-12.8 12.8-33.6 12.8-46.4 0-12.8-12.8-12.8-33.6 0-46.4l62.4-62.4h-92c-18.1 0-32.8-14.7-32.8-32.8 0-18.1 14.7-32.8 32.8-32.8h105.6v-61.8H354.1c-18.1 0-32.8-14.7-32.8-32.8v-1c0-18.1 14.7-32.8 32.8-32.8h105.6v-98.4c0-18.1 14.7-32.8 32.8-32.8 18.1 0 32.8 14.7 32.8 32.8v98.4h106.3c18.1 0 32.8 14.7 32.8 32.8v1c0 18.1-14.7 32.8-32.8 32.8H525.3z"  horiz-adv-x="1024" />

    


  </font>
</defs>
</svg>
